# xmcd CD database file
#
# Track frame offsets:
#	183
#	15768
#	28493
#	39625
#	53413
#	67428
#	78120
#	90583
#	102283
#	116545
#	135508
#	156383
#	165583
#	179008
#	193995
#	209618
#	224008
#	238483
#
# Disc length: 3386 seconds
#
# Revision: 1
# Processed by: cddbd v1.4PL0 Copyright (c) Steve Scherf et al.
# Submitted via: CDex 1.50
#
DISCID=0b0d3812
DTITLE=Nat King Cole - Embraceable You
DYEAR=1900
DGENRE=Jazz
TTITLE0=Embraceable You
TTITLE1=Ramblin´Rose
TTITLE2=Those Lazy-Crazy-Hazy-Days Of Summer
TTITLE3=Route 66
TTITLE4=For Sentimental Reason
TTITLE5=One Has My Name, The Other Has My Heart
TTITLE6=When You´re Smiling
TTITLE7=Love
TTITLE8=It´s Only A Paper Moon
TTITLE9=Sometimes I´m Happy
TTITLE10=Sweet Lorraine
TTITLE11=Skip To My Love
TTITLE12=Answer Me, My Love
TTITLE13=Bush Life
TTITLE14=Too Young
TTITLE15=Goodnight Irene
TTITLE16=Dear Lonely Hearts
TTITLE17=Mona Lisa
EXTD=
EXTT0=
EXTT1=
EXTT2=
EXTT3=
EXTT4=
EXTT5=
EXTT6=
EXTT7=
EXTT8=
EXTT9=
EXTT10=
EXTT11=
EXTT12=
EXTT13=
EXTT14=
EXTT15=
EXTT16=
EXTT17=
PLAYORDER=
